<?xml version="1.0" encoding="UTF-8" standalone="no"?>
<!DOCTYPE svg PUBLIC "-//W3C//DTD SVG 1.1//EN"
 "http://www.w3.org/Graphics/SVG/1.1/DTD/svg11.dtd">
<!-- Generated by graphviz version 2.26.3 (20100126.1600)
 -->
<!-- Title: controllers_diagram Pages: 1 -->
<svg width="668pt" height="404pt"
 viewBox="0.00 0.00 668.00 403.95" xmlns="http://www.w3.org/2000/svg" xmlns:xlink="http://www.w3.org/1999/xlink">
<g id="graph1" class="graph" transform="scale(1 1) rotate(0) translate(4 399.949)">
<title>controllers_diagram</title>
<polygon fill="white" stroke="white" points="-4,5 -4,-399.949 665,-399.949 665,5 -4,5"/>
<!-- _diagram_info -->
<g id="node1" class="node"><title>_diagram_info</title>
<text text-anchor="start" x="417" y="-78.3" font-family="Times Roman,serif" font-size="13.00">Controllers diagram</text>
<text text-anchor="start" x="417" y="-61.3" font-family="Times Roman,serif" font-size="13.00">Date: Jun 17 2013 &#45; 19:18</text>
<text text-anchor="start" x="417" y="-44.3" font-family="Times Roman,serif" font-size="13.00">Migration version: 20130603154014</text>
<text text-anchor="start" x="417" y="-27.3" font-family="Times Roman,serif" font-size="13.00">Generated by RailRoady 1.1.0</text>
<text text-anchor="start" x="417" y="-10.3" font-family="Times Roman,serif" font-size="13.00">http://railroady.prestonlee.com</text>
</g>
<!-- ApplicationController -->
<g id="node2" class="node"><title>ApplicationController</title>
<polyline fill="none" stroke="black" points="13,-260.778 218,-260.778 "/>
<path fill="none" stroke="black" d="M218,-260.778C224,-260.778 230,-266.778 230,-272.778"/>
<polyline fill="none" stroke="black" points="230,-272.778 230,-350.778 "/>
<path fill="none" stroke="black" d="M230,-350.778C230,-356.778 224,-362.778 218,-362.778"/>
<polyline fill="none" stroke="black" points="218,-362.778 13,-362.778 "/>
<path fill="none" stroke="black" d="M13,-362.778C7,-362.778 1,-356.778 1,-350.778"/>
<polyline fill="none" stroke="black" points="1,-350.778 1,-272.778 "/>
<path fill="none" stroke="black" d="M1,-272.778C1,-266.778 7,-260.778 13,-260.778"/>
<text text-anchor="middle" x="115.5" y="-346.178" font-family="Times Roman,serif" font-size="14.00">ApplicationController</text>
<polyline fill="none" stroke="black" points="1,-336.778 230,-336.778 "/>
<text text-anchor="start" x="9" y="-320.178" font-family="Times Roman,serif" font-size="14.00">_one_time_conditions_valid_8?</text>
<polyline fill="none" stroke="black" points="1,-310.778 230,-310.778 "/>
<polyline fill="none" stroke="black" points="1,-286.778 230,-286.778 "/>
<text text-anchor="start" x="9" y="-270.178" font-family="Times Roman,serif" font-size="14.00">_layout</text>
</g>
<!-- SessionController -->
<g id="node3" class="node"><title>SessionController</title>
<polyline fill="none" stroke="black" points="252.912,-238.449 367.912,-238.449 "/>
<path fill="none" stroke="black" d="M367.912,-238.449C373.912,-238.449 379.912,-244.449 379.912,-250.449"/>
<polyline fill="none" stroke="black" points="379.912,-250.449 379.912,-382.449 "/>
<path fill="none" stroke="black" d="M379.912,-382.449C379.912,-388.449 373.912,-394.449 367.912,-394.449"/>
<polyline fill="none" stroke="black" points="367.912,-394.449 252.912,-394.449 "/>
<path fill="none" stroke="black" d="M252.912,-394.449C246.912,-394.449 240.912,-388.449 240.912,-382.449"/>
<polyline fill="none" stroke="black" points="240.912,-382.449 240.912,-250.449 "/>
<path fill="none" stroke="black" d="M240.912,-250.449C240.912,-244.449 246.912,-238.449 252.912,-238.449"/>
<text text-anchor="middle" x="310.412" y="-377.849" font-family="Times Roman,serif" font-size="14.00">SessionController</text>
<polyline fill="none" stroke="black" points="240.912,-368.449 379.912,-368.449 "/>
<text text-anchor="start" x="248.912" y="-351.849" font-family="Times Roman,serif" font-size="14.00">add_server</text>
<text text-anchor="start" x="248.912" y="-333.849" font-family="Times Roman,serif" font-size="14.00">add_user</text>
<text text-anchor="start" x="248.912" y="-315.849" font-family="Times Roman,serif" font-size="14.00">change_password</text>
<text text-anchor="start" x="248.912" y="-297.849" font-family="Times Roman,serif" font-size="14.00">create</text>
<polyline fill="none" stroke="black" points="240.912,-288.449 379.912,-288.449 "/>
<polyline fill="none" stroke="black" points="240.912,-264.449 379.912,-264.449 "/>
<text text-anchor="start" x="248.912" y="-247.849" font-family="Times Roman,serif" font-size="14.00">_layout</text>
</g>
<!-- ApplicationController&#45;&gt;SessionController -->
<g id="edge2" class="edge"><title>ApplicationController&#45;&gt;SessionController</title>
<path fill="none" stroke="black" d="M230.008,-314.522C233.654,-314.61 237.268,-314.696 240.827,-314.782"/>
</g>
<!-- SystemAnalyserController -->
<g id="node4" class="node"><title>SystemAnalyserController</title>
<polyline fill="none" stroke="black" points="96.6153,-1.5 334.615,-1.5 "/>
<path fill="none" stroke="black" d="M334.615,-1.5C340.615,-1.5 346.615,-7.5 346.615,-13.5"/>
<polyline fill="none" stroke="black" points="346.615,-13.5 346.615,-199.5 "/>
<path fill="none" stroke="black" d="M346.615,-199.5C346.615,-205.5 340.615,-211.5 334.615,-211.5"/>
<polyline fill="none" stroke="black" points="334.615,-211.5 96.6153,-211.5 "/>
<path fill="none" stroke="black" d="M96.6153,-211.5C90.6153,-211.5 84.6153,-205.5 84.6153,-199.5"/>
<polyline fill="none" stroke="black" points="84.6153,-199.5 84.6153,-13.5 "/>
<path fill="none" stroke="black" d="M84.6153,-13.5C84.6153,-7.5 90.6153,-1.5 96.6153,-1.5"/>
<text text-anchor="middle" x="215.615" y="-194.9" font-family="Times Roman,serif" font-size="14.00">SystemAnalyserController</text>
<polyline fill="none" stroke="black" points="84.6153,-185.5 346.615,-185.5 "/>
<text text-anchor="start" x="92.6153" y="-168.9" font-family="Times Roman,serif" font-size="14.00">allprocesses_metrics_process_select</text>
<text text-anchor="start" x="92.6153" y="-150.9" font-family="Times Roman,serif" font-size="14.00">allprocesses_metrics_range_select</text>
<text text-anchor="start" x="92.6153" y="-132.9" font-family="Times Roman,serif" font-size="14.00">display_homepage</text>
<text text-anchor="start" x="92.6153" y="-114.9" font-family="Times Roman,serif" font-size="14.00">home_page_date_select</text>
<text text-anchor="start" x="92.6153" y="-96.9" font-family="Times Roman,serif" font-size="14.00">home_page_server_select</text>
<text text-anchor="start" x="92.6153" y="-78.9" font-family="Times Roman,serif" font-size="14.00">process_metrics_range_select</text>
<text text-anchor="start" x="92.6153" y="-60.9" font-family="Times Roman,serif" font-size="14.00">server_metrics_range_select</text>
<polyline fill="none" stroke="black" points="84.6153,-51.5 346.615,-51.5 "/>
<polyline fill="none" stroke="black" points="84.6153,-27.5 346.615,-27.5 "/>
<text text-anchor="start" x="92.6153" y="-10.9" font-family="Times Roman,serif" font-size="14.00">_layout</text>
</g>
<!-- ApplicationController&#45;&gt;SystemAnalyserController -->
<g id="edge4" class="edge"><title>ApplicationController&#45;&gt;SystemAnalyserController</title>
<path fill="none" stroke="black" d="M140.376,-260.772C147.673,-245.81 155.935,-228.87 164.245,-211.83"/>
</g>
</g>
</svg>
