<?xml version="1.0" encoding="UTF-8" standalone="no"?>
<!DOCTYPE svg PUBLIC "-//W3C//DTD SVG 1.1//EN"
 "http://www.w3.org/Graphics/SVG/1.1/DTD/svg11.dtd">
<!-- Generated by graphviz version 2.26.3 (20100126.1600)
 -->
<!-- Title: models_diagram Pages: 1 -->
<svg width="727pt" height="440pt"
 viewBox="0.00 0.00 727.00 440.00" xmlns="http://www.w3.org/2000/svg" xmlns:xlink="http://www.w3.org/1999/xlink">
<g id="graph1" class="graph" transform="scale(1 1) rotate(0) translate(4 436)">
<title>models_diagram</title>
<polygon fill="white" stroke="white" points="-4,5 -4,-436 724,-436 724,5 -4,5"/>
<!-- _diagram_info -->
<g id="node1" class="node"><title>_diagram_info</title>
<text text-anchor="start" x="8" y="-399.8" font-family="Times Roman,serif" font-size="13.00">Models diagram</text>
<text text-anchor="start" x="8" y="-382.8" font-family="Times Roman,serif" font-size="13.00">Date: Jun 17 2013 &#45; 19:18</text>
<text text-anchor="start" x="8" y="-365.8" font-family="Times Roman,serif" font-size="13.00">Migration version: 20130603154014</text>
<text text-anchor="start" x="8" y="-348.8" font-family="Times Roman,serif" font-size="13.00">Generated by RailRoady 1.1.0</text>
<text text-anchor="start" x="8" y="-331.8" font-family="Times Roman,serif" font-size="13.00">http://railroady.prestonlee.com</text>
</g>
<!-- ServerMetric -->
<g id="node2" class="node"><title>ServerMetric</title>
<polyline fill="none" stroke="black" points="188.5,-19 329.5,-19 "/>
<path fill="none" stroke="black" d="M329.5,-19C335.5,-19 341.5,-25 341.5,-31"/>
<polyline fill="none" stroke="black" points="341.5,-31 341.5,-239 "/>
<path fill="none" stroke="black" d="M341.5,-239C341.5,-245 335.5,-251 329.5,-251"/>
<polyline fill="none" stroke="black" points="329.5,-251 188.5,-251 "/>
<path fill="none" stroke="black" d="M188.5,-251C182.5,-251 176.5,-245 176.5,-239"/>
<polyline fill="none" stroke="black" points="176.5,-239 176.5,-31 "/>
<path fill="none" stroke="black" d="M176.5,-31C176.5,-25 182.5,-19 188.5,-19"/>
<text text-anchor="middle" x="259" y="-234.4" font-family="Times Roman,serif" font-size="14.00">ServerMetric</text>
<polyline fill="none" stroke="black" points="176.5,-225 341.5,-225 "/>
<text text-anchor="start" x="184.5" y="-208.4" font-family="Times Roman,serif" font-size="14.00">id :integer</text>
<text text-anchor="start" x="184.5" y="-190.4" font-family="Times Roman,serif" font-size="14.00">date :date</text>
<text text-anchor="start" x="184.5" y="-172.4" font-family="Times Roman,serif" font-size="14.00">time :datetime</text>
<text text-anchor="start" x="184.5" y="-154.4" font-family="Times Roman,serif" font-size="14.00">cpu :decimal</text>
<text text-anchor="start" x="184.5" y="-136.4" font-family="Times Roman,serif" font-size="14.00">mem :decimal</text>
<text text-anchor="start" x="184.5" y="-118.4" font-family="Times Roman,serif" font-size="14.00">net_in :decimal</text>
<text text-anchor="start" x="184.5" y="-100.4" font-family="Times Roman,serif" font-size="14.00">net_out :decimal</text>
<text text-anchor="start" x="184.5" y="-82.4" font-family="Times Roman,serif" font-size="14.00">disk :decimal</text>
<text text-anchor="start" x="184.5" y="-64.4" font-family="Times Roman,serif" font-size="14.00">server_id :integer</text>
<text text-anchor="start" x="184.5" y="-46.4" font-family="Times Roman,serif" font-size="14.00">created_at :datetime</text>
<text text-anchor="start" x="184.5" y="-28.4" font-family="Times Roman,serif" font-size="14.00">updated_at :datetime</text>
</g>
<!-- Server -->
<g id="node3" class="node"><title>Server</title>
<polyline fill="none" stroke="black" points="279.5,-316 420.5,-316 "/>
<path fill="none" stroke="black" d="M420.5,-316C426.5,-316 432.5,-322 432.5,-328"/>
<polyline fill="none" stroke="black" points="432.5,-328 432.5,-410 "/>
<path fill="none" stroke="black" d="M432.5,-410C432.5,-416 426.5,-422 420.5,-422"/>
<polyline fill="none" stroke="black" points="420.5,-422 279.5,-422 "/>
<path fill="none" stroke="black" d="M279.5,-422C273.5,-422 267.5,-416 267.5,-410"/>
<polyline fill="none" stroke="black" points="267.5,-410 267.5,-328 "/>
<path fill="none" stroke="black" d="M267.5,-328C267.5,-322 273.5,-316 279.5,-316"/>
<text text-anchor="middle" x="350" y="-405.4" font-family="Times Roman,serif" font-size="14.00">Server</text>
<polyline fill="none" stroke="black" points="267.5,-396 432.5,-396 "/>
<text text-anchor="start" x="275.5" y="-379.4" font-family="Times Roman,serif" font-size="14.00">id :integer</text>
<text text-anchor="start" x="275.5" y="-361.4" font-family="Times Roman,serif" font-size="14.00">host_name :string</text>
<text text-anchor="start" x="275.5" y="-343.4" font-family="Times Roman,serif" font-size="14.00">created_at :datetime</text>
<text text-anchor="start" x="275.5" y="-325.4" font-family="Times Roman,serif" font-size="14.00">updated_at :datetime</text>
</g>
<!-- Server&#45;&gt;ServerMetric -->
<g id="edge2" class="edge"><title>Server&#45;&gt;ServerMetric</title>
<path fill="none" stroke="#c37844" d="M326.297,-308.05C320.628,-293.472 314.367,-277.373 308.015,-261.038"/>
<ellipse fill="none" stroke="#c37844" cx="327.901" cy="-312.174" rx="4.00001" ry="4.00001"/>
<polygon fill="#c37844" stroke="#c37844" points="307.892,-260.723 308.462,-249.772 306.08,-256.063 304.268,-251.403 304.268,-251.403 304.268,-251.403 306.08,-256.063 300.074,-253.034 307.892,-260.723 307.892,-260.723"/>
</g>
<!-- ProcessMetric -->
<g id="node5" class="node"><title>ProcessMetric</title>
<polyline fill="none" stroke="black" points="370.5,-1 511.5,-1 "/>
<path fill="none" stroke="black" d="M511.5,-1C517.5,-1 523.5,-7 523.5,-13"/>
<polyline fill="none" stroke="black" points="523.5,-13 523.5,-257 "/>
<path fill="none" stroke="black" d="M523.5,-257C523.5,-263 517.5,-269 511.5,-269"/>
<polyline fill="none" stroke="black" points="511.5,-269 370.5,-269 "/>
<path fill="none" stroke="black" d="M370.5,-269C364.5,-269 358.5,-263 358.5,-257"/>
<polyline fill="none" stroke="black" points="358.5,-257 358.5,-13 "/>
<path fill="none" stroke="black" d="M358.5,-13C358.5,-7 364.5,-1 370.5,-1"/>
<text text-anchor="middle" x="441" y="-252.4" font-family="Times Roman,serif" font-size="14.00">ProcessMetric</text>
<polyline fill="none" stroke="black" points="358.5,-243 523.5,-243 "/>
<text text-anchor="start" x="366.5" y="-226.4" font-family="Times Roman,serif" font-size="14.00">id :integer</text>
<text text-anchor="start" x="366.5" y="-208.4" font-family="Times Roman,serif" font-size="14.00">date :date</text>
<text text-anchor="start" x="366.5" y="-190.4" font-family="Times Roman,serif" font-size="14.00">time :datetime</text>
<text text-anchor="start" x="366.5" y="-172.4" font-family="Times Roman,serif" font-size="14.00">proc_id :integer</text>
<text text-anchor="start" x="366.5" y="-154.4" font-family="Times Roman,serif" font-size="14.00">proc_name :string</text>
<text text-anchor="start" x="366.5" y="-136.4" font-family="Times Roman,serif" font-size="14.00">proc_owner :string</text>
<text text-anchor="start" x="366.5" y="-118.4" font-family="Times Roman,serif" font-size="14.00">cpu :decimal</text>
<text text-anchor="start" x="366.5" y="-100.4" font-family="Times Roman,serif" font-size="14.00">mem :decimal</text>
<text text-anchor="start" x="366.5" y="-82.4" font-family="Times Roman,serif" font-size="14.00">threads :integer</text>
<text text-anchor="start" x="366.5" y="-64.4" font-family="Times Roman,serif" font-size="14.00">disk :decimal</text>
<text text-anchor="start" x="366.5" y="-46.4" font-family="Times Roman,serif" font-size="14.00">server_id :integer</text>
<text text-anchor="start" x="366.5" y="-28.4" font-family="Times Roman,serif" font-size="14.00">created_at :datetime</text>
<text text-anchor="start" x="366.5" y="-10.4" font-family="Times Roman,serif" font-size="14.00">updated_at :datetime</text>
</g>
<!-- Server&#45;&gt;ProcessMetric -->
<g id="edge4" class="edge"><title>Server&#45;&gt;ProcessMetric</title>
<path fill="none" stroke="#642b15" d="M373.682,-308.103C377.288,-298.831 381.133,-288.943 385.089,-278.771"/>
<ellipse fill="none" stroke="#642b15" cx="372.099" cy="-312.174" rx="4.00001" ry="4.00001"/>
<polygon fill="#642b15" stroke="#642b15" points="385.125,-278.677 392.944,-270.988 386.938,-274.017 388.75,-269.357 388.75,-269.357 388.75,-269.357 386.938,-274.017 384.556,-267.726 385.125,-278.677 385.125,-278.677"/>
</g>
<!-- User -->
<g id="node4" class="node"><title>User</title>
<polyline fill="none" stroke="black" points="552.5,-55 707.5,-55 "/>
<path fill="none" stroke="black" d="M707.5,-55C713.5,-55 719.5,-61 719.5,-67"/>
<polyline fill="none" stroke="black" points="719.5,-67 719.5,-203 "/>
<path fill="none" stroke="black" d="M719.5,-203C719.5,-209 713.5,-215 707.5,-215"/>
<polyline fill="none" stroke="black" points="707.5,-215 552.5,-215 "/>
<path fill="none" stroke="black" d="M552.5,-215C546.5,-215 540.5,-209 540.5,-203"/>
<polyline fill="none" stroke="black" points="540.5,-203 540.5,-67 "/>
<path fill="none" stroke="black" d="M540.5,-67C540.5,-61 546.5,-55 552.5,-55"/>
<text text-anchor="middle" x="630" y="-198.4" font-family="Times Roman,serif" font-size="14.00">User</text>
<polyline fill="none" stroke="black" points="540.5,-189 719.5,-189 "/>
<text text-anchor="start" x="548.5" y="-172.4" font-family="Times Roman,serif" font-size="14.00">id :integer</text>
<text text-anchor="start" x="548.5" y="-154.4" font-family="Times Roman,serif" font-size="14.00">name :string</text>
<text text-anchor="start" x="548.5" y="-136.4" font-family="Times Roman,serif" font-size="14.00">email :string</text>
<text text-anchor="start" x="548.5" y="-118.4" font-family="Times Roman,serif" font-size="14.00">password_digest :string</text>
<text text-anchor="start" x="548.5" y="-100.4" font-family="Times Roman,serif" font-size="14.00">created_at :datetime</text>
<text text-anchor="start" x="548.5" y="-82.4" font-family="Times Roman,serif" font-size="14.00">updated_at :datetime</text>
<text text-anchor="start" x="548.5" y="-64.4" font-family="Times Roman,serif" font-size="14.00">role_id :integer</text>
</g>
<!-- Role -->
<g id="node6" class="node"><title>Role</title>
<polyline fill="none" stroke="black" points="559.5,-307 700.5,-307 "/>
<path fill="none" stroke="black" d="M700.5,-307C706.5,-307 712.5,-313 712.5,-319"/>
<polyline fill="none" stroke="black" points="712.5,-319 712.5,-419 "/>
<path fill="none" stroke="black" d="M712.5,-419C712.5,-425 706.5,-431 700.5,-431"/>
<polyline fill="none" stroke="black" points="700.5,-431 559.5,-431 "/>
<path fill="none" stroke="black" d="M559.5,-431C553.5,-431 547.5,-425 547.5,-419"/>
<polyline fill="none" stroke="black" points="547.5,-419 547.5,-319 "/>
<path fill="none" stroke="black" d="M547.5,-319C547.5,-313 553.5,-307 559.5,-307"/>
<text text-anchor="middle" x="630" y="-414.4" font-family="Times Roman,serif" font-size="14.00">Role</text>
<polyline fill="none" stroke="black" points="547.5,-405 712.5,-405 "/>
<text text-anchor="start" x="555.5" y="-388.4" font-family="Times Roman,serif" font-size="14.00">id :integer</text>
<text text-anchor="start" x="555.5" y="-370.4" font-family="Times Roman,serif" font-size="14.00">name :string</text>
<text text-anchor="start" x="555.5" y="-352.4" font-family="Times Roman,serif" font-size="14.00">description :text</text>
<text text-anchor="start" x="555.5" y="-334.4" font-family="Times Roman,serif" font-size="14.00">created_at :datetime</text>
<text text-anchor="start" x="555.5" y="-316.4" font-family="Times Roman,serif" font-size="14.00">updated_at :datetime</text>
</g>
<!-- Role&#45;&gt;User -->
<g id="edge6" class="edge"><title>Role&#45;&gt;User</title>
<path fill="none" stroke="#b44547" d="M630,-298.849C630,-275.661 630,-249.532 630,-225.065"/>
<ellipse fill="none" stroke="#b44547" cx="630" cy="-302.907" rx="4" ry="4"/>
<polygon fill="#b44547" stroke="#b44547" points="630,-225.059 634.5,-215.059 630,-220.059 630,-215.059 630,-215.059 630,-215.059 630,-220.059 625.5,-215.059 630,-225.059 630,-225.059"/>
</g>
</g>
</svg>
