<?xml version="1.0" encoding="UTF-8" standalone="no"?>
<!DOCTYPE svg PUBLIC "-//W3C//DTD SVG 1.1//EN"
 "http://www.w3.org/Graphics/SVG/1.1/DTD/svg11.dtd">
<!-- Generated by graphviz version 2.26.3 (20100126.1600)
 -->
<!-- Title: models_diagram Pages: 1 -->
<svg width="569pt" height="176pt"
 viewBox="0.00 0.00 569.00 176.00" xmlns="http://www.w3.org/2000/svg" xmlns:xlink="http://www.w3.org/1999/xlink">
<g id="graph1" class="graph" transform="scale(1 1) rotate(0) translate(4 172)">
<title>models_diagram</title>
<polygon fill="white" stroke="white" points="-4,5 -4,-172 566,-172 566,5 -4,5"/>
<!-- _diagram_info -->
<g id="node1" class="node"><title>_diagram_info</title>
<text text-anchor="start" x="8" y="-151.8" font-family="Times Roman,serif" font-size="13.00">Models diagram</text>
<text text-anchor="start" x="8" y="-134.8" font-family="Times Roman,serif" font-size="13.00">Date: Jun 17 2013 &#45; 19:18</text>
<text text-anchor="start" x="8" y="-117.8" font-family="Times Roman,serif" font-size="13.00">Migration version: 20130603154014</text>
<text text-anchor="start" x="8" y="-100.8" font-family="Times Roman,serif" font-size="13.00">Generated by RailRoady 1.1.0</text>
<text text-anchor="start" x="8" y="-83.8" font-family="Times Roman,serif" font-size="13.00">http://railroady.prestonlee.com</text>
</g>
<!-- ServerMetric -->
<g id="node2" class="node"><title>ServerMetric</title>
<ellipse fill="none" stroke="black" cx="227" cy="-19" rx="74.2462" ry="18.3848"/>
<text text-anchor="middle" x="227" y="-15.4" font-family="Times Roman,serif" font-size="14.00">ServerMetric</text>
</g>
<!-- Server -->
<g id="node3" class="node"><title>Server</title>
<ellipse fill="none" stroke="black" cx="312" cy="-121" rx="43.8406" ry="18.3848"/>
<text text-anchor="middle" x="312" y="-117.4" font-family="Times Roman,serif" font-size="14.00">Server</text>
</g>
<!-- Server&#45;&gt;ServerMetric -->
<g id="edge2" class="edge"><title>Server&#45;&gt;ServerMetric</title>
<path fill="none" stroke="#cc0f40" d="M291.851,-96.8211C278.89,-81.2682 262.053,-61.0638 248.783,-45.1399"/>
<ellipse fill="none" stroke="#cc0f40" cx="294.633" cy="-100.16" rx="4.00002" ry="4.00002"/>
<polygon fill="#cc0f40" stroke="#cc0f40" points="248.61,-44.9325 245.666,-34.3694 245.409,-41.0914 242.209,-37.2503 242.209,-37.2503 242.209,-37.2503 245.409,-41.0914 238.752,-40.1311 248.61,-44.9325 248.61,-44.9325"/>
</g>
<!-- ProcessMetric -->
<g id="node5" class="node"><title>ProcessMetric</title>
<ellipse fill="none" stroke="black" cx="397" cy="-19" rx="77.9889" ry="18.3848"/>
<text text-anchor="middle" x="397" y="-15.4" font-family="Times Roman,serif" font-size="14.00">ProcessMetric</text>
</g>
<!-- Server&#45;&gt;ProcessMetric -->
<g id="edge4" class="edge"><title>Server&#45;&gt;ProcessMetric</title>
<path fill="none" stroke="#9afe01" d="M332.149,-96.8211C345.11,-81.2682 361.947,-61.0638 375.217,-45.1399"/>
<ellipse fill="none" stroke="#9afe01" cx="329.367" cy="-100.16" rx="4.00002" ry="4.00002"/>
<polygon fill="#9afe01" stroke="#9afe01" points="375.39,-44.9325 385.248,-40.1311 378.591,-41.0914 381.791,-37.2503 381.791,-37.2503 381.791,-37.2503 378.591,-41.0914 378.334,-34.3694 375.39,-44.9325 375.39,-44.9325"/>
</g>
<!-- User -->
<g id="node4" class="node"><title>User</title>
<ellipse fill="none" stroke="black" cx="527" cy="-19" rx="33.9411" ry="18.3848"/>
<text text-anchor="middle" x="527" y="-15.4" font-family="Times Roman,serif" font-size="14.00">User</text>
</g>
<!-- Role -->
<g id="node6" class="node"><title>Role</title>
<ellipse fill="none" stroke="black" cx="527" cy="-121" rx="32.0265" ry="18.3848"/>
<text text-anchor="middle" x="527" y="-117.4" font-family="Times Roman,serif" font-size="14.00">Role</text>
</g>
<!-- Role&#45;&gt;User -->
<g id="edge6" class="edge"><title>Role&#45;&gt;User</title>
<path fill="none" stroke="#9e9038" d="M527,-94.0151C527,-79.8348 527,-62.4446 527,-47.9795"/>
<ellipse fill="none" stroke="#9e9038" cx="527" cy="-98.2916" rx="4" ry="4"/>
<polygon fill="#9e9038" stroke="#9e9038" points="527,-47.5898 531.5,-37.5897 527,-42.5898 527,-37.5898 527,-37.5898 527,-37.5898 527,-42.5898 522.5,-37.5898 527,-47.5898 527,-47.5898"/>
</g>
</g>
</svg>
